Coordinates
version=1
nRows=17
nColumns=33
inDegrees=yes

Units are S.I. units (second, meters, Newtons, ...)
Angles are in degrees.

endheader
time	ground_thorax_rot_x	ground_thorax_rot_y	ground_thorax_rot_z	ground_thorax_tx	ground_thorax_ty	ground_thorax_tz	clav_prot_r	clav_elev_r	scapula_abduction_r	scapula_elevation_r	scapula_upward_rot_r	scapula_winging_r	shoulder_elv_r	plane_of_elev_r	axial_rot_r	elbow_flexion_r	pro_sup_r	wrist_flex_r	wrist_dev_r	clav_prot_l	clav_elev_l	scapula_abduction_l	scapula_elevation_l	scapula_upward_rot_l	scapula_winging_l	shoulder_elv_l	plane_of_elev_l	axial_rot_l	elbow_flexion_l	pro_sup_l	wrist_flex_l	wrist_dev_l	
3.1600	37.962377	7.038016	12.528730	-169.302887	816.883953	-2.348728	16.889208	39.984578	43.473608	45.000000	-39.116458	2073.991795	-2268.883067	146.214671	-132.982802	1824.700341	171.327356	10.956552	3.969513	9.828696	-45.000000	-42.577789	45.000000	-27.841346	-984.405919	-1006.947884	23.923997	-17.457472	1447.665425	20.304653	10.215226	-21.808029	
3.1700	38.069061	6.985584	12.207803	-165.548084	816.190861	-2.210203	16.938961	40.198712	43.715962	45.000000	-38.311548	2074.077901	-2269.090233	146.228075	-133.169825	1824.601050	172.807701	10.837847	3.786322	9.751624	-45.000000	-42.898770	45.000000	-26.774827	-984.602271	-1007.154129	23.927389	-17.327566	1447.663523	20.376849	10.402801	-21.718805	
3.1800	38.179615	6.938563	11.872880	-161.702650	815.401448	-2.053855	16.988851	40.407391	43.960842	45.000000	-37.526418	2074.173035	-2269.296094	146.238311	-133.297204	1824.501165	174.229638	10.724945	3.613772	9.675966	-45.000000	-43.229844	45.000000	-25.711722	-984.805408	-1007.372641	23.935125	-17.181261	1447.655156	20.545352	10.578935	-21.635498	
3.1900	38.293716	6.906691	11.530161	-157.776889	814.518745	-1.881969	17.027967	40.619397	44.200219	45.000000	-36.765778	2074.269515	-2269.503012	146.237063	-133.334263	1824.397444	175.589452	10.621257	3.448901	9.608406	-45.000000	-43.568874	45.000000	-24.677175	-985.022572	-1007.596240	23.942366	-17.014589	1447.646388	20.801521	10.731544	-21.557995	
3.2000	38.410330	6.889061	11.180107	-153.778901	813.546086	-1.699403	17.061437	40.829288	44.426775	45.000000	-36.023132	2074.377726	-2269.709705	146.231641	-133.292932	1824.289025	176.884407	10.527645	3.293835	9.544059	-45.000000	-43.906348	45.000000	-23.670953	-985.253452	-1007.825284	23.951203	-16.833187	1447.630678	21.139732	10.867318	-21.487397	
3.2100	38.531315	6.900147	10.831486	-149.716107	812.487716	-1.512254	17.075214	41.043273	44.623162	44.999999	-35.291352	2074.493119	-2269.918632	146.215126	-133.170572	1824.167916	178.078626	10.449128	3.137519	9.487176	-45.000000	-44.226603	45.000000	-22.720461	-985.508180	-1008.056442	23.960414	-16.640657	1447.613591	21.545087	10.977509	-21.422906	
3.2200	38.654874	6.938350	10.491080	-145.598817	811.350440	-1.325074	17.071417	41.251693	44.782108	44.999999	-34.562915	2074.633546	-2270.124819	146.199622	-133.000289	1824.036405	179.141965	10.386946	2.978211	9.426830	-45.000000	-44.503399	45.000000	-21.835462	-985.790691	-1008.286639	23.973208	-16.450959	1447.590883	22.007791	11.073280	-21.365907	
3.2300	38.780519	7.017947	10.173093	-141.440461	810.143940	-1.140187	17.035673	41.456428	44.892257	44.999997	-33.842088	2074.795626	-2270.329593	146.178757	-132.789667	1823.892602	180.017765	10.346363	2.806438	9.366643	-45.000000	-44.720434	45.000000	-21.054080	-986.111920	-1008.509708	23.985486	-16.274776	1447.570606	22.509300	11.148006	-21.315268	
3.2400	38.908486	7.123916	9.867513	-137.258242	808.880665	-0.957467	16.993318	41.642466	44.959751	44.999995	-33.123991	2074.997434	-2270.520514	146.171722	-132.586299	1823.744863	180.674549	10.327212	2.631263	9.285991	-45.000000	-44.868765	45.000000	-20.354379	-986.469597	-1008.726327	24.000360	-16.130605	1447.543354	23.042605	11.225405	-21.273168	
3.2500	39.037930	7.265378	9.584808	-133.071651	807.574686	-0.775821	16.939642	41.811983	44.989943	44.999991	-32.435949	2075.222733	-2270.705448	146.164644	-132.395878	1823.592125	181.064024	10.334886	2.449580	9.196368	-45.000000	-44.954637	45.000000	-19.759076	-986.862888	-1008.936804	24.014892	-16.021286	1447.515287	23.589450	11.297656	-21.236897	
3.2600	39.169110	7.422169	9.311199	-128.900550	806.239519	-0.595263	16.893610	41.959659	45.000000	44.999985	-31.778039	2075.477838	-2270.878046	146.169379	-132.251518	1823.439723	181.143819	10.371553	2.269014	9.086907	-45.000000	-44.990817	45.000000	-19.238929	-987.284061	-1009.144703	24.028990	-15.942010	1447.481060	24.141398	11.380092	-21.206830	
3.2700	39.298794	7.605688	9.059475	-124.763681	804.887220	-0.417596	16.841129	42.099750	45.000000	44.999973	-31.175990	2075.736062	-2271.056254	146.167515	-132.144898	1823.279532	180.837743	10.445928	2.086028	8.982665	-45.000000	-45.000000	45.000000	-18.806830	-987.724200	-1009.352503	24.039893	-15.864073	1447.444436	24.680094	11.455028	-21.177008	
3.2800	39.430796	7.783294	8.794913	-120.678456	803.527613	-0.246458	16.807363	42.230888	45.000000	44.999951	-30.594504	2076.003725	-2271.231434	146.172466	-132.119337	1823.108033	180.044047	10.562931	1.917105	8.863698	-45.000000	-45.000000	45.000000	-18.398288	-988.172622	-1009.569640	24.055228	-15.763466	1447.394831	25.207831	11.542305	-21.148669	
3.2900	39.562150	7.963256	8.528838	-116.661612	802.169585	-0.085428	16.771472	42.363759	45.000000	44.999912	-30.044373	2076.261110	-2271.416642	146.166968	-132.194309	1822.908786	178.605802	10.734138	1.768652	8.752345	-45.000000	-45.000000	45.000000	-18.024883	-988.622853	-1009.798297	24.080418	-15.602763	1447.332675	25.721891	11.625953	-21.117508	
3.3000	39.692222	8.126221	8.246655	-112.728869	800.821327	0.062941	16.741856	42.493811	45.000000	44.999843	-29.505708	2076.519147	-2271.598028	146.156900	-132.466110	1822.659118	176.223713	10.971586	1.674042	8.635422	-45.000000	-45.000000	45.000000	-17.659610	-989.073136	-1010.035878	24.123317	-15.360993	1447.251794	26.237934	11.716743	-21.086168	
3.3100	39.819884	8.269638	7.951504	-108.895003	799.491925	0.198986	16.713529	42.622914	45.000000	44.999718	-28.979583	2076.775889	-2271.774878	146.138304	-133.042767	1822.325465	172.528914	11.291180	1.668841	8.515767	-45.000000	-45.000000	45.000000	-17.298064	-989.521300	-1010.282558	24.183805	-15.018209	1447.147409	26.771417	11.810797	-21.054850	
3.3200	39.945174	8.383929	7.639026	-105.173081	798.190806	0.325110	16.694536	42.738287	45.000000	44.999495	-28.465566	2077.039039	-2271.927152	146.106870	-134.205841	1821.805504	166.451441	11.730747	1.867064	8.384061	-45.000000	-45.000000	45.000000	-16.929004	-989.963200	-1010.536212	24.267344	-14.571071	1447.018359	27.356853	11.913875	-21.029744	
